<svg aria-hidden="true" style="position:absolute;width:0;height:0;overflow:hidden" xmlns="http://www.w3.org/2000/svg">
  <defs>
    <symbol id="icon-instagram" viewBox="0 0 24 28">
      <path d="M16 14c0-2.203-1.797-4-4-4s-4 1.797-4 4 1.797 4 4 4 4-1.797 4-4zm2.156 0c0 3.406-2.75 6.156-6.156 6.156S5.844 17.406 5.844 14 8.594 7.844 12 7.844s6.156 2.75 6.156 6.156zm1.688-6.406c0 .797-.641 1.437-1.437 1.437S16.97 8.39 16.97 7.594s.641-1.437 1.437-1.437 1.437.641 1.437 1.437zM12 4.156c-1.75 0-5.5-.141-7.078.484-.547.219-.953.484-1.375.906s-.688.828-.906 1.375c-.625 1.578-.484 5.328-.484 7.078s-.141 5.5.484 7.078c.219.547.484.953.906 1.375s.828.688 1.375.906c1.578.625 5.328.484 7.078.484s5.5.141 7.078-.484c.547-.219.953-.484 1.375-.906s.688-.828.906-1.375c.625-1.578.484-5.328.484-7.078s.141-5.5-.484-7.078c-.219-.547-.484-.953-.906-1.375s-.828-.688-1.375-.906C17.5 4.015 13.75 4.156 12 4.156zM24 14c0 1.656.016 3.297-.078 4.953-.094 1.922-.531 3.625-1.937 5.031s-3.109 1.844-5.031 1.937c-1.656.094-3.297.078-4.953.078s-3.297.016-4.953-.078c-1.922-.094-3.625-.531-5.031-1.937S.173 20.875.08 18.953C-.014 17.297.002 15.656.002 14s-.016-3.297.078-4.953c.094-1.922.531-3.625 1.937-5.031s3.109-1.844 5.031-1.937c1.656-.094 3.297-.078 4.953-.078s3.297-.016 4.953.078c1.922.094 3.625.531 5.031 1.937s1.844 3.109 1.937 5.031C24.016 10.703 24 12.344 24 14z"/>
    </symbol>
    <symbol id="icon-linkedin" viewBox="0 0 24 28">
      <path d="M3.703 22.094h3.609V11.25H3.703v10.844zM7.547 7.906c-.016-1.062-.781-1.875-2.016-1.875s-2.047.812-2.047 1.875c0 1.031.781 1.875 2 1.875H5.5c1.266 0 2.047-.844 2.047-1.875zm9.141 14.188h3.609v-6.219c0-3.328-1.781-4.875-4.156-4.875-1.937 0-2.797 1.078-3.266 1.828h.031V11.25H9.297s.047 1.016 0 10.844h3.609v-6.062c0-.313.016-.641.109-.875.266-.641.859-1.313 1.859-1.313 1.297 0 1.813.984 1.813 2.453v5.797zM24 6.5v15c0 2.484-2.016 4.5-4.5 4.5h-15A4.502 4.502 0 0 1 0 21.5v-15C0 4.016 2.016 2 4.5 2h15C21.984 2 24 4.016 24 6.5z"/>
    </symbol>
    <symbol id="icon-tree" viewBox="0 0 32 32">
      <path d="M30.5 24H30v-6.5c0-1.93-1.57-3.5-3.5-3.5H18v-4h.5c.825 0 1.5-.675 1.5-1.5v-5c0-.825-.675-1.5-1.5-1.5h-5c-.825 0-1.5.675-1.5 1.5v5c0 .825.675 1.5 1.5 1.5h.5v4H5.5C3.57 14 2 15.57 2 17.5V24h-.5c-.825 0-1.5.675-1.5 1.5v5c0 .825.675 1.5 1.5 1.5h5c.825 0 1.5-.675 1.5-1.5v-5c0-.825-.675-1.5-1.5-1.5H6v-6h8v6h-.5c-.825 0-1.5.675-1.5 1.5v5c0 .825.675 1.5 1.5 1.5h5c.825 0 1.5-.675 1.5-1.5v-5c0-.825-.675-1.5-1.5-1.5H18v-6h8v6h-.5c-.825 0-1.5.675-1.5 1.5v5c0 .825.675 1.5 1.5 1.5h5c.825 0 1.5-.675 1.5-1.5v-5c0-.825-.675-1.5-1.5-1.5zM6 30H2v-4h4v4zm12 0h-4v-4h4v4zM14 8V4h4v4h-4zm16 22h-4v-4h4v4z"/>
    </symbol>
    <symbol id="icon-close" viewBox="0 0 32 32">
<path stroke-linejoin="round" stroke-linecap="round" stroke-miterlimit="4" stroke-width="3" d="M24 8l-16 16"></path>
<path stroke-linejoin="round" stroke-linecap="round" stroke-miterlimit="4" stroke-width="3" d="M8 8l16 16"></path>
</symbol>
  </defs>
</svg>